<svg width="395" height="504" viewBox="0 0 395 504" fill="none" xmlns="http://www.w3.org/2000/svg">
<g clip-path="url(#clip0_1689_4092)">
<path d="M71.818 174.427C71.818 154.595 55.741 138.518 35.909 138.518C16.077 138.518 0 154.595 0 174.427V328.633C0 348.465 16.077 364.542 35.909 364.542C55.741 364.542 71.818 348.465 71.818 328.633V174.427Z" fill="#1D1A18"/>
<path d="M179.545 125.746C179.545 105.914 163.468 89.8369 143.636 89.8369C123.804 89.8369 107.727 105.914 107.727 125.746V377.316C107.727 397.148 123.804 413.225 143.636 413.225C163.468 413.225 179.545 397.148 179.545 377.316V125.746Z" fill="#1D1A18"/>
<path d="M395 87.4988C395 67.6669 378.923 51.5898 359.091 51.5898C339.259 51.5898 323.182 67.6669 323.182 87.4988V415.569C323.182 435.401 339.259 451.478 359.091 451.478C378.923 451.478 395 435.401 395 415.569V87.4988Z" fill="#1D1A18"/>
<path d="M287.272 35.909C287.272 16.077 271.195 0 251.363 0C231.531 0 215.454 16.077 215.454 35.909V467.139C215.454 486.971 231.531 503.048 251.363 503.048C271.195 503.048 287.272 486.971 287.272 467.139V35.909Z" fill="#1D1A18"/>
</g>
<defs>
<clipPath id="clip0_1689_4092">
<rect width="395" height="504" fill="white"/>
</clipPath>
</defs>
</svg>
