<svg width="512" height="512" viewBox="0 0 512 512" fill="none" xmlns="http://www.w3.org/2000/svg">
<g clip-path="url(#clip0_609_937)">
<path d="M32.0001 277.337C49.6854 277.337 64.0001 263.001 64.0001 245.337C64.0001 180.655 116.629 128.004 181.333 128.004H405.333V163.481C405.333 182.489 428.309 192.004 441.749 178.564L505.749 111.087C514.091 102.745 514.091 89.2412 505.749 80.9212L441.749 13.4438C428.309 0.00384754 405.333 9.51852 405.333 28.5265V64.0039H181.333C81.3441 64.0039 8.40829e-05 145.348 8.40829e-05 245.337C8.40829e-05 263.001 14.3148 277.337 32.0001 277.337ZM480 234.671C462.336 234.671 448 249.007 448 266.671C448 331.353 395.349 384.004 330.667 384.004H106.667V348.527C106.667 329.519 83.6908 320.004 70.2508 333.444L6.25075 400.921C-2.09058 409.263 -2.09058 422.767 6.25075 431.087L70.2508 498.564C83.6908 512.004 106.667 502.489 106.667 483.481V448.004H330.667C430.656 448.004 512 366.66 512 266.671C512 249.007 497.664 234.671 480 234.671Z" fill="white"/>
<path d="M266.666 170.667C259.456 170.667 252.885 173.142 247.53 177.152H247.317L185.578 228.587C174.272 237.995 172.736 254.806 182.165 266.134C187.456 272.47 195.029 275.734 202.666 275.734C208.682 275.734 214.741 273.707 219.733 269.547L234.666 257.11V309.334C234.666 326.998 248.981 341.334 266.666 341.334C284.352 341.334 298.666 326.998 298.666 309.334V202.667C298.666 185.003 284.33 170.667 266.666 170.667Z" fill="white"/>
</g>
<defs>
<clipPath id="clip0_609_937">
<rect width="512" height="512" fill="white"/>
</clipPath>
</defs>
</svg>
