<svg width="942" height="512" viewBox="0 0 942 512" fill="none" xmlns="http://www.w3.org/2000/svg">
<path fill-rule="evenodd" clip-rule="evenodd" d="M0 420.079C0 431.534 4.23778 440.195 12.7118 446.065C21.1867 451.935 30.2455 454.011 39.889 452.294C48.9478 450.576 55.3042 447.426 58.9582 442.844C62.6105 438.263 64.4377 430.674 64.4377 420.079V295.516C64.4377 286.638 61.2965 279.121 55.0132 272.965C48.7309 266.808 41.0599 263.731 32.0002 263.731C23.2333 263.731 15.7082 266.808 9.42501 272.965C3.14179 279.121 0 286.638 0 295.516V420.079ZM100.819 473.341C100.819 481.646 103.814 487.873 109.805 492.026C115.796 496.179 123.467 498.254 132.818 498.254C142.461 498.254 150.278 496.178 156.269 492.026C162.26 487.874 165.255 481.646 165.255 473.341V182.979C165.255 174.389 162.113 167.015 155.831 160.859C149.548 154.703 141.877 151.624 132.818 151.624C124.051 151.624 116.526 154.703 110.243 160.859C103.96 167.016 100.819 174.389 100.819 182.979V473.341ZM201.199 487.086C201.199 495.39 204.268 501.618 210.405 505.771C216.541 509.923 224.432 511.999 234.076 511.999C243.427 511.999 251.098 509.923 257.088 505.771C263.079 501.618 266.075 495.39 266.075 487.086V222.067C266.075 213.19 262.933 205.601 256.651 199.302C250.368 193.002 242.843 189.852 234.076 189.852C225.017 189.852 217.273 193.002 210.844 199.302C204.415 205.601 201.201 213.19 201.201 222.067L201.199 487.086ZM302.019 488.374C302.019 504.124 312.831 511.999 334.456 511.999C356.081 511.999 366.893 504.124 366.893 488.374V58.8455C366.893 34.7919 359.441 21.1901 344.537 18.0399C334.894 15.7488 325.395 18.4699 316.045 26.2014C306.693 33.9329 302.018 44.8136 302.018 58.8455L302.019 488.374ZM404.592 500.83V33.5035C404.592 18.6135 409.121 9.73679 418.181 6.87269C437.76 2.29133 457.193 0 476.48 0C521.19 0 562.834 10.3085 601.407 30.9259C639.982 51.5433 671.177 79.6778 694.993 115.329C718.81 150.98 732.619 190.281 736.417 233.235C754.243 225.789 773.237 222.067 793.401 222.067C834.313 222.067 869.308 236.242 898.384 264.591C927.461 292.941 942 327.016 942 366.819C942 406.909 927.461 441.128 898.384 469.477C869.308 497.826 834.46 512 793.839 512L412.48 511.571C409.849 510.712 407.877 509.136 406.562 506.845C405.247 504.555 404.592 502.549 404.592 500.83Z" fill="#FF4300"/>
</svg>
