<svg width="395" height="396" viewBox="0 0 395 396" fill="none" xmlns="http://www.w3.org/2000/svg">
<path d="M391.26 151.06L389.72 143.4L324.582 132.021L362.432 80.813L358.032 75.9987L302.356 102.697L309.398 31.7937L303.678 28.5111L269.789 85.8462L231.72 0.5H225.118L234.14 83.0013L138.415 6.40859L130.273 8.81577L203.992 101.384L58.0956 52.8019L51.4936 60.2423L181.766 134.428L1.98042 149.309L0 160.469L186.828 180.821L31.029 309.717L37.631 318.689L223.137 217.804L186.388 395.5H197.611L268.688 228.309L312.039 359.173L319.742 353.264L301.916 220.212L369.474 296.804L373.875 289.802L322.162 194.827L394.341 221.524L395 213.428L330.304 165.722L391.26 151.06Z" fill="#FFBC0D"/>
</svg>
