<svg width="512" height="512" viewBox="0 0 512 512" fill="none" xmlns="http://www.w3.org/2000/svg">
<g clip-path="url(#clip0_1506_4087)">
<path d="M502.099 472.644C498.835 470.576 439.635 433.757 352.019 415.508C360.936 377.111 377.981 284.094 357.992 199.221C354.664 185.129 351.016 171.271 347.048 157.733C382.056 178.093 418.344 187.282 443.88 191.375C446.056 191.738 448.211 191.887 450.366 191.887C463.123 191.887 475.24 185.875 483.027 175.386C492.264 162.957 493.779 146.604 487.016 132.683C473.662 105.202 449.384 66.8054 409.598 39.8575C345.725 -3.35719 266.664 -0.372453 255.592 0.309772C244.605 0.0965766 166.76 0.245813 103.271 43.2047C64.4233 69.4917 40.1459 105.714 26.6205 131.468C19.3032 145.389 20.4978 161.976 29.7352 174.746C38.8659 187.389 54.0766 193.678 69.33 191.184C88.1247 188.071 112.85 182.208 138.557 171.058C139.069 193.038 142.824 213.569 147.005 227.533C150.717 239.899 159.762 249.557 171.858 254.055C176.53 255.803 181.352 256.656 186.152 256.656C193.789 256.656 201.362 254.481 208.061 250.217C222.909 240.752 240.552 225.06 255.954 205.851C255.997 208.452 256.018 211.011 256.018 213.526C256.018 295.479 216.808 380.501 202.6 408.579C92.05 421.584 13.7138 470.278 9.9378 472.665C-0.0248992 478.955 -2.99024 492.13 3.30311 502.065C7.35645 508.482 14.2898 512 21.3512 512C25.2552 512 29.1805 510.934 32.7219 508.695C33.5752 508.163 149.33 448.041 255.997 448.041C381.182 448.041 478.334 508.12 479.294 508.717C489.235 514.963 502.419 511.979 508.713 502.044C514.985 492.088 512.019 478.955 502.057 472.665L502.099 472.644ZM385.704 75.1627C416.467 95.9919 436.072 126.159 447.379 148.715C422.995 144.472 388.691 135.049 357.693 114.071C327.144 93.3909 305.491 65.2491 292.157 43.9935C318.291 46.6584 354.813 54.2482 385.683 75.1414L385.704 75.1627ZM65.8953 148.502C77.394 127.31 97.042 98.9126 127.207 78.5098C157.544 57.9791 193 49.2594 218.92 45.5925C205.522 66.6349 184.189 93.9025 154.386 114.071C123.815 134.751 90.002 144.195 65.9166 148.502H65.8953ZM187.218 212.887C182.546 195.895 179.389 169.395 182.397 146.54C212.626 125.093 234.92 98.3583 250.152 75.8662C252.37 89.2336 253.309 104.349 251.026 119.529C250.941 119.976 250.877 120.445 250.813 120.914C249.789 127.225 248.21 133.536 245.906 139.718C233.746 172.572 204.349 201.246 187.197 212.908L187.218 212.887ZM251.496 405.424C270.461 363.616 298.707 288.784 298.707 213.505C298.707 187.431 296.701 157.051 294.461 133.6C302.909 157.541 310.291 182.784 316.456 208.964C334.76 286.695 317.48 375.789 309.757 408.6C292.563 406.575 274.621 405.381 256.018 405.381C254.504 405.381 253.01 405.381 251.496 405.424Z" fill="white"/>
</g>
<defs>
<clipPath id="clip0_1506_4087">
<rect width="512" height="512" fill="white"/>
</clipPath>
</defs>
</svg>
